<?xml version="1.0" standalone="no"?>
<!DOCTYPE svg PUBLIC "-//W3C//DTD SVG 20010904//EN"
 "http://www.w3.org/TR/2001/REC-SVG-20010904/DTD/svg10.dtd">
<svg version="1.0" xmlns="http://www.w3.org/2000/svg"
 width="3464.000000pt" height="3464.000000pt" viewBox="0 0 3464.000000 3464.000000"
 preserveAspectRatio="xMidYMid meet">

<g transform="translate(0.000000,3464.000000) scale(0.100000,-0.100000)"
fill="#000000" stroke="none">
<path d="M8960 17315 l0 -4225 765 0 765 0 0 385 0 385 385 0 385 0 0 508 c0
280 3 968 7 1530 l6 1022 1534 0 1533 0 0 385 0 385 374 0 c332 0 375 2 380
16 3 9 6 182 6 385 l0 369 -457 1 c-252 1 -480 2 -508 3 -27 1 -683 2 -1457 4
l-1408 2 0 760 0 760 198 1 c108 1 206 3 217 4 11 1 957 2 2103 3 l2082 2 0
385 0 385 385 0 385 0 0 385 0 385 -3840 0 -3840 0 0 -4225z"/>
<path d="M18860 21155 l0 -385 -375 0 -375 0 0 -385 0 -385 -387 -2 -388 -3 0
-1150 0 -1150 388 -3 387 -2 0 -385 0 -385 2300 0 2300 0 0 -1150 0 -1150
-1535 0 -1535 0 0 770 0 770 -1155 0 -1156 0 3 -767 3 -768 388 -3 387 -2 0
-380 0 -380 380 0 380 0 0 -385 0 -385 2305 0 2305 0 0 385 0 385 380 0 380 0
0 380 0 380 385 0 385 0 0 1150 0 1150 -385 0 -385 0 0 385 0 385 -377 2 -378
3 -3 383 c-2 295 -5 382 -15 383 -6 1 -19 2 -27 3 -8 2 -867 3 -1907 4 l-1893
2 0 765 0 765 1535 0 1535 0 0 -379 0 -380 103 -4 c79 -3 1375 -2 2090 2 l107
1 0 380 0 380 -385 0 -385 0 0 385 0 385 -380 0 -380 0 0 385 0 385 -2310 0
-2310 0 0 -385z"/>
<path d="M1410 18455 l0 -765 385 0 385 0 0 -765 0 -765 380 0 380 0 0 -770 0
-770 388 -2 387 -3 3 -377 2 -378 385 0 385 0 0 -385 0 -385 380 0 380 0 0
385 0 385 385 0 385 0 0 380 0 380 385 0 385 0 0 770 0 770 385 0 385 0 0 765
0 765 380 0 380 0 0 765 0 765 -1150 0 -1150 0 0 -1915 0 -1915 -385 0 -385 0
0 -385 0 -385 -380 0 -380 0 0 385 0 385 -385 0 -385 0 0 1915 0 1915 -1155 0
-1155 0 0 -765z"/>
<path d="M25692 18458 l3 -763 388 -3 387 -2 0 -765 0 -765 373 0 374 0 6
-302 c4 -166 7 -512 7 -770 l0 -468 385 0 385 0 0 -380 0 -380 385 0 385 0 0
-385 0 -385 380 0 380 0 0 385 0 385 385 0 385 0 0 380 0 380 385 0 385 0 0
770 0 770 385 0 385 0 0 765 0 765 380 0 380 0 0 765 0 765 -1150 0 -1150 0 0
-1915 0 -1915 -385 0 -385 0 0 -385 0 -385 -380 0 -380 0 0 385 0 385 -385 0
-385 0 0 1915 0 1915 -1155 0 -1155 0 2 -762z"/>
<path d="M10372 11171 c-22 -96 -28 -91 108 -91 l120 0 0 60 0 60 -104 0 c-69
0 -106 4 -108 11 -2 7 -9 -12 -16 -40z"/>
<path d="M18720 11213 c0 -10 -39 -13 -160 -13 l-160 0 0 -305 0 -304 63 -3
62 -3 3 -62 3 -63 364 0 364 0 3 63 3 62 63 3 62 3 0 119 0 120 -125 0 -125 0
0 -125 0 -125 -185 0 -185 0 0 311 c0 270 -2 310 -15 305 -8 -3 -19 2 -24 12
-6 10 -11 12 -11 5z"/>
<path d="M2704 11201 c-2 -2 -4 -170 -4 -373 l0 -368 185 0 185 0 0 370 0 369
-181 3 c-99 2 -183 1 -185 -1z"/>
<path d="M4140 11202 c-36 -2 -68 -8 -72 -15 -6 -9 -8 -9 -8 1 0 6 -4 12 -10
12 -6 0 -10 -88 -10 -245 l0 -244 63 -3 62 -3 3 -57 3 -57 57 -3 57 -3 3 -62
3 -63 304 0 304 0 3 63 3 62 63 3 62 3 0 119 0 120 -125 0 -125 0 0 -125 0
-125 -185 0 -185 0 0 190 0 190 308 0 307 0 -3 115 c-2 68 -7 115 -13 115 -6
0 -8 4 -5 8 3 5 -1 9 -9 9 -8 0 -15 -7 -15 -16 0 -11 -3 -12 -8 -4 -4 7 -42
13 -93 15 l-85 3 -3 -40 c-2 -22 -4 -51 -5 -65 l-2 -25 -187 -3 -187 -2 0 65
0 65 -87 1 c-49 0 -95 1 -103 2 -8 1 -44 1 -80 -1z"/>
<path d="M5450 11205 c0 -6 -59 -9 -160 -8 l-160 2 0 -244 0 -244 63 -3 62 -3
3 -57 3 -57 57 -3 57 -3 3 -62 3 -63 304 0 304 0 3 63 3 62 63 3 62 3 0 119 0
120 -125 0 -125 0 0 -125 0 -125 -185 0 -185 0 0 190 0 190 311 0 311 0 -6 23
c-3 12 -6 65 -6 118 l0 96 -87 2 c-49 1 -100 3 -115 5 -15 2 -27 0 -26 -3 1
-3 -2 -34 -7 -68 l-8 -63 -183 0 -184 0 0 65 c0 37 -4 65 -10 65 -5 0 -10 -5
-10 -12 0 -6 -7 -3 -15 8 -8 10 -15 15 -15 9z"/>
<path d="M6298 11203 l-68 -4 0 -244 0 -244 63 -3 62 -3 3 -57 3 -57 57 -3 57
-3 3 -62 3 -63 430 0 429 0 -2 370 -3 371 -175 2 c-149 2 -176 0 -179 -13 -1
-8 -5 -149 -7 -312 l-5 -298 -185 0 -184 0 0 309 0 309 -105 1 c-58 1 -111 3
-118 4 -6 2 -42 1 -79 0z"/>
<path d="M7984 11201 c-2 -2 -4 -31 -4 -63 l0 -58 120 0 120 0 0 53 c0 28 -4
57 -8 62 -7 9 -219 15 -228 6z"/>
<path d="M8607 11203 c-4 -3 -7 -62 -7 -130 l0 -123 -245 0 -245 0 0 -60 0
-60 -65 0 -65 0 0 -120 0 -119 63 -3 62 -3 3 -62 3 -63 424 0 425 0 0 364 0
364 -37 7 c-62 12 -284 6 -302 -8 -12 -10 -14 -9 -8 6 7 18 5 21 -6 10z m-7
-498 l0 -125 -187 2 -188 3 -3 123 -3 122 191 0 190 0 0 -125z"/>
<path d="M9838 11202 l-88 -3 0 -59 0 -60 60 0 60 0 0 -60 0 -60 60 0 60 0 0
-65 0 -65 65 0 65 0 0 -60 0 -60 60 0 60 0 0 -65 0 -65 -187 2 -188 3 -3 123
-3 122 -119 0 -120 0 0 -120 0 -119 63 -3 62 -3 3 -62 3 -63 364 0 364 0 3 63
3 62 63 3 62 3 0 54 0 54 -62 3 -63 3 -3 63 -3 62 -59 0 -60 0 0 60 0 60 -65
0 -65 0 0 60 0 60 -60 0 -60 0 0 60 c0 40 -4 62 -12 65 -19 6 -162 10 -260 7z"/>
<path d="M11363 11202 l-163 -2 0 -305 0 -304 63 -3 62 -3 3 -62 3 -63 364 0
364 0 3 63 3 62 63 3 62 3 0 119 0 120 -125 0 -125 0 0 -125 0 -125 -185 0
-185 0 0 311 c0 260 -2 310 -14 306 -7 -3 -17 -2 -22 1 -5 4 -82 6 -171 4z"/>
<path d="M12425 11202 c-2 -2 -33 -4 -69 -4 l-66 -1 0 -243 0 -244 65 0 65 0
0 -60 0 -59 58 -3 57 -3 3 -62 3 -63 304 0 304 0 3 63 3 62 63 3 62 3 0 119 0
120 -125 0 -125 0 0 -125 0 -125 -185 0 -185 0 0 190 0 190 308 0 307 0 -3
102 c-3 123 -9 159 -23 137 -5 -7 -9 -9 -9 -4 0 6 -38 9 -99 7 l-100 -3 -6
-65 -7 -64 -184 0 -183 0 -3 66 -3 65 -113 2 c-63 1 -115 0 -117 -1z"/>
<path d="M15290 11202 c-52 -2 -87 -8 -92 -15 -6 -9 -8 -9 -8 0 0 7 -11 12
-25 11 l-25 -2 0 -118 0 -118 60 0 60 0 0 -125 0 -125 65 0 65 0 0 -125 0
-125 180 0 180 0 0 125 0 125 60 0 60 0 0 125 0 125 65 0 65 0 0 121 0 120
-157 -2 c-98 -2 -161 -7 -165 -13 -5 -7 -8 -6 -8 2 0 10 -5 8 -17 -4 -14 -14
-19 -40 -22 -126 l-3 -108 -64 0 -64 0 0 123 0 124 -56 2 c-31 1 -60 3 -63 4
-3 1 -44 1 -91 -1z"/>
<path d="M16357 11203 c-4 -3 -7 -172 -7 -375 l0 -368 185 0 185 0 0 370 0
371 -165 -3 c-91 -2 -165 1 -165 6 0 5 -8 2 -17 -5 -11 -10 -14 -10 -9 -1 8
13 4 16 -7 5z"/>
<path d="M17800 11202 c0 -4 -47 -6 -104 -4 l-104 4 -11 -38 c-24 -86 -26 -84
109 -84 l120 0 0 65 c0 36 -2 65 -5 65 -3 0 -5 -3 -5 -8z"/>
<path d="M17950 11197 c0 -5 -4 -5 -10 -2 -7 4 -10 -120 -10 -364 l0 -371 185
0 185 0 0 370 c0 240 -4 370 -10 370 -5 0 -10 -5 -10 -12 0 -6 -7 -3 -15 8 -8
10 -15 14 -15 9 0 -6 -19 -9 -42 -8 -118 7 -258 7 -258 0z"/>
<path d="M19640 11197 c0 -5 -31 -5 -70 -1 l-70 7 0 -246 0 -246 63 -3 62 -3
3 -57 3 -57 57 -3 57 -3 3 -62 3 -63 304 0 304 0 3 63 3 62 63 3 62 3 0 119 0
120 -125 0 -125 0 0 -125 0 -125 -185 0 -185 0 0 190 0 190 308 0 307 0 -3
118 c-2 64 -5 118 -6 118 0 1 -45 4 -98 6 -64 2 -98 0 -98 -7 0 -5 -4 -4 -9 4
-12 19 -19 3 -27 -67 l-7 -62 -183 0 -184 0 0 64 0 65 -115 3 c-63 2 -115 -1
-115 -5z"/>
<path d="M21153 11203 c-10 -4 -13 -88 -13 -374 l0 -369 120 0 119 0 3 63 3
62 63 3 62 3 0 244 0 245 245 0 245 0 0 59 0 59 -412 1 c-226 1 -414 3 -417 5
-3 2 -12 1 -18 -1z"/>
<path d="M22610 10838 l0 -378 180 0 180 0 -2 368 -3 367 -168 5 c-108 3 -167
1 -167 -5 0 -5 -5 -3 -10 5 -6 10 -10 -115 -10 -362z"/>
<path d="M23539 11191 c0 -10 -2 -12 -6 -3 -3 8 -32 12 -94 12 l-89 0 0 -60 0
-60 120 0 120 0 0 63 c0 44 -3 58 -10 47 -8 -13 -10 -13 -10 1 0 9 -7 16 -15
16 -8 0 -15 -7 -16 -16z"/>
<path d="M24010 11205 c0 -6 -48 -9 -130 -7 -95 2 -130 0 -130 -9 0 -8 -4 -8
-12 -2 -7 6 -21 10 -30 10 -17 0 -18 -19 -18 -244 l0 -243 65 0 65 0 0 -60 0
-59 58 -3 57 -3 3 -62 3 -63 304 0 304 0 3 63 3 62 63 3 62 3 0 59 0 60 60 0
60 0 0 239 0 240 -42 5 c-81 11 -315 11 -317 1 -2 -5 -5 -146 -8 -312 l-4
-303 -185 0 -184 0 0 310 c0 200 -4 310 -10 310 -5 0 -10 -5 -10 -12 0 -6 -7
-3 -15 8 -8 10 -14 15 -15 9z"/>
<path d="M25205 11200 l-170 -5 -3 -367 -2 -368 180 0 180 0 0 369 c0 204 -3
371 -7 373 -5 2 -84 1 -178 -2z m172 -22 c-3 -8 -6 -5 -6 6 -1 11 2 17 5 13 3
-3 4 -12 1 -19z"/>
<path d="M25783 11203 c-10 -4 -13 -87 -13 -374 l0 -369 180 0 180 0 0 360 c0
313 -2 360 -15 360 -8 0 -15 5 -15 11 0 8 -16 9 -51 5 -28 -4 -49 -3 -46 1 3
4 -39 8 -94 8 -81 0 -99 -3 -100 -15 0 -13 -2 -12 -7 1 -4 9 -13 14 -19 12z"/>
<path d="M26270 11197 c0 -5 -4 -5 -10 -2 -7 4 -10 -98 -10 -299 l0 -305 63
-3 62 -3 3 -62 3 -63 364 0 364 0 3 63 3 62 63 3 62 3 0 119 0 120 -125 0
-125 0 0 -125 0 -125 -185 0 -185 0 0 310 c0 200 -4 310 -10 310 -5 0 -10 -5
-10 -12 0 -6 -7 -3 -15 8 -8 10 -15 14 -15 9 0 -6 -19 -9 -42 -8 -118 7 -258
7 -258 0z"/>
<path d="M29260 11202 c-36 -2 -68 -8 -72 -15 -6 -9 -8 -9 -8 1 0 6 -4 12 -10
12 -6 0 -10 -88 -10 -245 l0 -244 63 -3 62 -3 3 -57 3 -57 57 -3 57 -3 3 -62
3 -63 430 0 429 0 -2 368 -3 367 -176 5 c-113 3 -177 1 -178 -5 -1 -5 -5 -146
-8 -312 l-5 -303 -184 0 -184 0 0 313 0 312 -103 0 c-56 0 -131 -1 -167 -3z"/>
<path d="M30505 11202 c-2 -2 -33 -4 -69 -4 l-66 -1 0 -243 0 -244 65 0 65 0
0 -60 0 -59 58 -3 57 -3 3 -62 3 -63 304 0 304 0 3 63 3 62 63 3 62 3 0 119 0
120 -125 0 -125 0 0 -125 0 -125 -185 0 -185 0 0 190 0 190 308 0 307 0 -3
102 c-3 123 -9 159 -23 137 -5 -7 -9 -9 -9 -4 0 6 -38 9 -99 7 l-100 -3 -6
-65 -7 -64 -184 0 -183 0 -3 66 -3 65 -113 2 c-63 1 -115 0 -117 -1z"/>
<path d="M31488 11202 l-28 -3 0 -120 0 -119 65 0 65 0 0 -65 0 -65 55 0 55 0
0 65 0 65 65 0 66 0 -3 121 -3 121 -155 2 c-85 0 -167 0 -182 -2z"/>
<path d="M3200 11139 l0 -59 60 0 60 0 0 -60 0 -60 60 0 60 0 0 -65 0 -65 65
0 65 0 0 -185 0 -185 180 0 180 0 0 370 0 369 -365 0 -365 -1 0 -59z"/>
<path d="M10720 10830 l0 -370 185 0 185 0 0 370 c0 348 -1 371 -17 368 -10
-2 -21 -7 -25 -13 -5 -6 -8 -5 -8 3 0 9 -39 12 -160 12 l-160 0 0 -370z"/>
<path d="M13756 11177 c-3 -12 -6 -41 -6 -64 l0 -43 -60 0 -60 0 0 -120 0
-120 180 0 180 0 0 125 0 125 125 0 125 0 0 60 0 59 -239 0 c-237 0 -239 0
-245 -22z"/>
<path d="M16960 11141 l0 -61 60 0 60 0 0 -60 0 -60 60 0 60 0 0 -65 0 -65 65
0 65 0 0 -60 0 -60 60 0 60 0 0 -65 0 -65 -187 2 -188 3 -3 123 -3 122 -119 0
-120 0 0 -120 0 -119 63 -3 62 -3 3 -62 3 -63 364 0 364 0 3 63 3 62 63 3 62
3 0 54 0 54 -62 3 -63 3 -3 63 -3 62 -59 0 -60 0 0 60 0 60 -65 0 -65 0 0 60
0 60 -60 0 -60 0 0 63 0 62 -180 3 -180 3 0 -60z"/>
<path d="M27488 11193 c-14 -4 -18 -15 -18 -59 l0 -54 370 0 370 0 -2 -187 -3
-188 -247 -3 -248 -2 0 125 0 125 -185 0 -185 0 0 -120 0 -119 63 -3 62 -3 3
-57 3 -57 57 -3 57 -3 3 -62 3 -63 369 0 370 0 0 65 0 65 60 0 60 0 0 60 0 60
60 0 60 0 0 180 0 180 -60 0 -60 0 0 65 c0 57 -2 65 -19 65 -11 0 -22 -6 -24
-12 -4 -10 -6 -10 -6 0 -1 10 -93 12 -448 11 -247 -1 -456 -4 -465 -6z"/>
<path d="M28680 10830 l0 -370 185 0 185 0 0 370 0 370 -169 0 c-126 0 -171
-3 -174 -12 -4 -10 -6 -10 -6 0 -1 6 -5 12 -11 12 -6 0 -10 -130 -10 -370z"/>
<path d="M13630 10580 l0 -120 180 0 180 0 0 120 0 120 -180 0 -180 0 0 -120z"/>
<path d="M31460 10580 l0 -120 185 0 185 0 0 120 0 120 -185 0 -185 0 0 -120z"/>
</g>
</svg>
